<svg width="1024" height="1024" xmlns="http://www.w3.org/2000/svg" class="icon">
 <defs>
  <style type="text/css"/>
 </defs>
 <g>
  <title>background</title>
  <rect fill="none" id="canvas_background" height="402" width="582" y="-1" x="-1"/>
 </g>
 <g>
  <title>Layer 1</title>
  <path id="svg_1" fill="#1ba784" d="m229.4,79.4c16,16 16,41.9 0,57.9l-114.8,114.8c-16,16 -41.9,16 -57.9,0s-16,-41.9 0,-57.9l114.8,-114.8c16,-16 41.9,-16 57.9,0zm725.3,180.7c-16,16 -41.9,16 -57.9,0l-114.8,-114.7c-16,-16 -16,-41.9 0,-57.9s41.9,-16 57.9,0l114.8,114.8c16,15.9 16,41.8 0,57.8z"/>
  <path id="svg_2" fill="#1ba784" d="m812.5,832.4c74.6,-78.2 120.3,-184.1 120.3,-300.6c0,-240.6 -195.1,-435.7 -435.7,-435.7s-435.7,195.1 -435.7,435.7c0,117.1 46.2,223.4 121.3,301.7l-68.7,68.7c-16,16 -16,41.9 0,57.9s41.9,16 57.9,0l73,-73c71.2,50.6 158.2,80.4 252.2,80.4c94.5,0 182,-30.1 253.4,-81.2l72.8,72.8c16,16 41.9,16 57.9,0s16,-41.9 0,-57.9l-68.7,-68.8z"/>
  <path id="svg_3" fill="#FFFFFF" d="m746.8,630.1l-221.9,-128.1l0,-150.8c0,-22.6 -18.3,-41 -41,-41c-22.6,0 -41,18.3 -41,41l0,172.6c0,4.7 0.8,9.2 2.3,13.5c2.8,9.9 9.3,18.7 18.9,24.2l241.7,139.5c19.6,11.3 44.6,4.6 55.9,-15c11.4,-19.5 4.7,-44.6 -14.9,-55.9z"/>
 </g>
</svg>